<?xml version="1.0" standalone="no"?>
<!DOCTYPE svg PUBLIC "-//W3C//DTD SVG 20010904//EN"
 "http://www.w3.org/TR/2001/REC-SVG-20010904/DTD/svg10.dtd">
<svg version="1.0" xmlns="http://www.w3.org/2000/svg"
 width="15" height="16" viewBox="0 0 490.000000 500.000000"
 preserveAspectRatio="xMidYMid meet">

<g transform="translate(0.000000,500.000000) scale(0.100000,-0.100000)"
fill="#000000" stroke="none">
<path d="M2890 4950 l0 -50 375 0 375 0 0 50 0 50 -375 0 -375 0 0 -50z"/>
<path d="M2600 4850 l0 -40 140 0 140 0 0 40 0 40 -140 0 -140 0 0 -40z"/>
<path d="M3650 4850 l0 -40 140 0 140 0 0 40 0 40 -140 0 -140 0 0 -40z"/>
<path d="M2410 4755 l0 -45 90 0 90 0 0 45 0 45 -90 0 -90 0 0 -45z"/>
<path d="M3940 4755 l0 -45 90 0 90 0 0 45 0 45 -90 0 -90 0 0 -45z"/>
<path d="M2220 4660 l0 -40 90 0 90 0 0 40 0 40 -90 0 -90 0 0 -40z"/>
<path d="M4130 4660 l0 -40 90 0 90 0 0 40 0 40 -90 0 -90 0 0 -40z"/>
<path d="M2120 4565 l0 -45 45 0 45 0 0 45 0 45 -45 0 -45 0 0 -45z"/>
<path d="M4320 4565 l0 -45 45 0 45 0 0 45 0 45 -45 0 -45 0 0 -45z"/>
<path d="M2030 4465 l0 -45 40 0 40 0 0 45 0 45 -40 0 -40 0 0 -45z"/>
<path d="M4420 4465 l0 -45 45 0 45 0 0 45 0 45 -45 0 -45 0 0 -45z"/>
<path d="M1930 4320 l0 -90 45 0 45 0 0 90 0 90 -45 0 -45 0 0 -90z"/>
<path d="M4520 4320 l0 -90 40 0 40 0 0 90 0 90 -40 0 -40 0 0 -90z"/>
<path d="M1840 4130 l0 -90 40 0 40 0 0 90 0 90 -40 0 -40 0 0 -90z"/>
<path d="M4610 4130 l0 -90 45 0 45 0 0 90 0 90 -45 0 -45 0 0 -90z"/>
<path d="M1740 3890 l0 -140 45 0 45 0 0 140 0 140 -45 0 -45 0 0 -140z"/>
<path d="M4710 3890 l0 -140 40 0 40 0 0 140 0 140 -40 0 -40 0 0 -140z"/>
<path d="M1640 3365 l0 -375 45 0 45 0 0 375 0 375 -45 0 -45 0 0 -375z"/>
<path d="M4800 3365 l0 -375 50 0 50 0 0 375 0 375 -50 0 -50 0 0 -375z"/>
<path d="M1740 2840 l0 -140 45 0 45 0 0 140 0 140 -45 0 -45 0 0 -140z"/>
<path d="M4710 2840 l0 -140 40 0 40 0 0 140 0 140 -40 0 -40 0 0 -140z"/>
<path d="M970 2925 l0 -45 135 0 135 0 0 45 0 45 -135 0 -135 0 0 -45z"/>
<path d="M780 2830 l0 -40 90 0 90 0 0 40 0 40 -90 0 -90 0 0 -40z"/>
<path d="M1250 2830 l0 -40 90 0 90 0 0 40 0 40 -90 0 -90 0 0 -40z"/>
<path d="M680 2735 l0 -45 45 0 45 0 0 45 0 45 -45 0 -45 0 0 -45z"/>
<path d="M1440 2735 l0 -45 45 0 45 0 0 45 0 45 -45 0 -45 0 0 -45z"/>
<path d="M1840 2600 l0 -90 40 0 40 0 0 90 0 90 -40 0 -40 0 0 -90z"/>
<path d="M4610 2600 l0 -90 45 0 45 0 0 90 0 90 -45 0 -45 0 0 -90z"/>
<path d="M590 2590 l0 -90 40 0 40 0 0 90 0 90 -40 0 -40 0 0 -90z"/>
<path d="M1540 2640 l0 -40 40 0 40 0 0 40 0 40 -40 0 -40 0 0 -40z"/>
<path d="M1630 2495 l0 -95 45 0 45 0 0 95 0 95 -45 0 -45 0 0 -95z"/>
<path d="M1930 2355 l0 -145 90 0 90 0 0 -90 0 -90 145 0 145 0 0 45 0 45 -95
0 -95 0 0 45 0 45 -50 0 -50 0 0 50 0 50 -45 0 -45 0 0 95 0 95 -45 0 -45 0 0
-145z"/>
<path d="M4520 2410 l0 -90 40 0 40 0 0 90 0 90 -40 0 -40 0 0 -90z"/>
<path d="M300 2445 l0 -45 90 0 90 0 0 -95 0 -95 50 0 50 0 0 -95 0 -95 45 0
45 0 0 -50 0 -50 50 0 50 0 0 -45 0 -45 95 0 95 0 0 -50 0 -50 50 0 50 0 0
-45 0 -45 40 0 40 0 0 50 0 50 110 0 110 0 0 -55 0 -55 40 0 40 0 0 50 0 50
50 0 50 0 0 -50 0 -50 45 0 45 0 0 -45 0 -45 -45 0 -45 0 0 -45 0 -45 50 0 50
0 0 -195 0 -195 45 0 45 0 0 -95 0 -95 50 0 50 0 0 -50 0 -50 45 0 45 0 0 -50
0 -50 95 0 95 0 0 -45 0 -45 100 0 100 0 0 -95 0 -95 40 0 40 0 0 140 0 140
-140 0 -140 0 0 50 0 50 -95 0 -95 0 0 50 0 50 -45 0 -45 0 0 95 0 95 -50 0
-50 0 0 285 0 285 50 0 50 0 0 50 0 50 45 0 45 0 0 50 0 50 190 0 190 0 0 40
0 40 -100 0 -100 0 0 55 0 55 -40 0 -40 0 0 -50 0 -50 -50 0 -50 0 0 50 0 50
-45 0 -45 0 0 50 0 50 45 0 45 0 0 40 0 40 -50 0 -50 0 0 95 0 95 -45 0 -45 0
0 -185 0 -185 -50 0 -50 0 0 -50 0 -50 -45 0 -45 0 0 -45 0 -45 -290 0 -290 0
0 45 0 45 -95 0 -95 0 0 50 0 50 -50 0 -50 0 0 95 0 95 -45 0 -45 0 0 140 0
140 -140 0 -140 0 0 -45z m1530 -620 l0 -95 -100 0 -100 0 0 95 0 95 100 0
100 0 0 -95z"/>
<path d="M110 2350 l0 -40 90 0 90 0 0 40 0 40 -90 0 -90 0 0 -40z"/>
<path d="M4420 2265 l0 -45 45 0 45 0 0 45 0 45 -45 0 -45 0 0 -45z"/>
<path d="M0 2260 l0 -40 50 0 50 0 0 40 0 40 -50 0 -50 0 0 -40z"/>
<path d="M110 2120 l0 -90 40 0 40 0 0 90 0 90 -40 0 -40 0 0 -90z"/>
<path d="M4320 2170 l0 -40 45 0 45 0 0 40 0 40 -45 0 -45 0 0 -40z"/>
<path d="M4130 2075 l0 -45 90 0 90 0 0 45 0 45 -90 0 -90 0 0 -45z"/>
<path d="M200 1930 l0 -90 45 0 45 0 0 90 0 90 -45 0 -45 0 0 -90z"/>
<path d="M2410 1975 l0 -45 90 0 90 0 0 45 0 45 -90 0 -90 0 0 -45z"/>
<path d="M3940 1975 l0 -45 90 0 90 0 0 45 0 45 -90 0 -90 0 0 -45z"/>
<path d="M2600 1880 l0 -40 140 0 140 0 0 40 0 40 -140 0 -140 0 0 -40z"/>
<path d="M3650 1880 l0 -40 140 0 140 0 0 40 0 40 -140 0 -140 0 0 -40z"/>
<path d="M300 1785 l0 -45 40 0 40 0 0 45 0 45 -40 0 -40 0 0 -45z"/>
<path d="M2890 1785 l0 -45 375 0 375 0 0 45 0 45 -375 0 -375 0 0 -45z"/>
<path d="M2310 1775 l0 -45 90 0 90 0 0 45 0 45 -90 0 -90 0 0 -45z"/>
<path d="M390 1685 l0 -45 140 0 140 0 0 45 0 45 -140 0 -140 0 0 -45z"/>
<path d="M2500 1675 l0 -45 40 0 40 0 0 45 0 45 -40 0 -40 0 0 -45z"/>
<path d="M680 1590 l0 -40 185 0 185 0 0 40 0 40 -185 0 -185 0 0 -40z"/>
<path d="M1260 1580 l0 -40 45 0 45 0 0 40 0 40 -45 0 -45 0 0 -40z"/>
<path d="M2590 1580 l0 -40 45 0 45 0 0 40 0 40 -45 0 -45 0 0 -40z"/>
<path d="M1160 1485 l0 -45 45 0 45 0 0 45 0 45 -45 0 -45 0 0 -45z"/>
<path d="M2690 1440 l0 -90 45 0 45 0 0 90 0 90 -45 0 -45 0 0 -90z"/>
<path d="M1440 1400 l0 -40 45 0 45 0 0 40 0 40 -45 0 -45 0 0 -40z"/>
<path d="M1070 1390 l0 -40 40 0 40 0 0 40 0 40 -40 0 -40 0 0 -40z"/>
<path d="M1350 1305 l0 -45 40 0 40 0 0 45 0 45 -40 0 -40 0 0 -45z"/>
<path d="M970 1295 l0 -45 45 0 45 0 0 45 0 45 -45 0 -45 0 0 -45z"/>
<path d="M2790 1205 l0 -135 40 0 40 0 0 135 0 135 -40 0 -40 0 0 -135z"/>
<path d="M1250 1205 l0 -45 45 0 45 0 0 45 0 45 -45 0 -45 0 0 -45z"/>
<path d="M870 1195 l0 -45 45 0 45 0 0 45 0 45 -45 0 -45 0 0 -45z"/>
<path d="M1150 1110 l0 -40 45 0 45 0 0 40 0 40 -45 0 -45 0 0 -40z"/>
<path d="M780 1100 l0 -40 40 0 40 0 0 40 0 40 -40 0 -40 0 0 -40z"/>
<path d="M1060 1015 l0 -45 40 0 40 0 0 45 0 45 -40 0 -40 0 0 -45z"/>
<path d="M2690 970 l0 -90 45 0 45 0 0 90 0 90 -45 0 -45 0 0 -90z"/>
<path d="M680 1005 l0 -45 45 0 45 0 0 45 0 45 -45 0 -45 0 0 -45z"/>
<path d="M1550 960 l0 -90 40 0 40 0 0 90 0 90 -40 0 -40 0 0 -90z"/>
<path d="M960 920 l0 -40 45 0 45 0 0 40 0 40 -45 0 -45 0 0 -40z"/>
<path d="M590 910 l0 -40 40 0 40 0 0 40 0 40 -40 0 -40 0 0 -40z"/>
<path d="M860 825 l0 -45 45 0 45 0 0 45 0 45 -45 0 -45 0 0 -45z"/>
<path d="M2590 825 l0 -45 45 0 45 0 0 45 0 45 -45 0 -45 0 0 -45z"/>
<path d="M490 815 l0 -45 45 0 45 0 0 45 0 45 -45 0 -45 0 0 -45z"/>
<path d="M1450 725 l0 -135 45 0 45 0 0 135 0 135 -45 0 -45 0 0 -135z"/>
<path d="M770 725 l0 -45 40 0 40 0 0 45 0 45 -40 0 -40 0 0 -45z"/>
<path d="M2400 725 l0 -45 90 0 90 0 0 45 0 45 -90 0 -90 0 0 -45z"/>
<path d="M390 715 l0 -45 45 0 45 0 0 45 0 45 -45 0 -45 0 0 -45z"/>
<path d="M670 630 l0 -40 45 0 45 0 0 40 0 40 -45 0 -45 0 0 -40z"/>
<path d="M300 620 l0 -40 40 0 40 0 0 40 0 40 -40 0 -40 0 0 -40z"/>
<path d="M580 535 l0 -45 40 0 40 0 0 45 0 45 -40 0 -40 0 0 -45z"/>
<path d="M1550 535 l0 -45 40 0 40 0 0 45 0 45 -40 0 -40 0 0 -45z"/>
<path d="M200 525 l0 -45 45 0 45 0 0 45 0 45 -45 0 -45 0 0 -45z"/>
<path d="M480 435 l0 -45 45 0 45 0 0 45 0 45 -45 0 -45 0 0 -45z"/>
<path d="M1640 435 l0 -45 45 0 45 0 0 45 0 45 -45 0 -45 0 0 -45z"/>
<path d="M110 425 l0 -45 40 0 40 0 0 45 0 45 -40 0 -40 0 0 -45z"/>
<path d="M380 340 l0 -40 45 0 45 0 0 40 0 40 -45 0 -45 0 0 -40z"/>
<path d="M1740 340 l0 -40 45 0 45 0 0 40 0 40 -45 0 -45 0 0 -40z"/>
<path d="M2210 340 l0 -40 45 0 45 0 0 40 0 40 -45 0 -45 0 0 -40z"/>
<path d="M0 285 l0 -85 50 0 50 0 0 85 0 85 -50 0 -50 0 0 -85z"/>
<path d="M290 245 l0 -45 40 0 40 0 0 45 0 45 -40 0 -40 0 0 -45z"/>
<path d="M1840 245 l0 -45 40 0 40 0 0 45 0 45 -40 0 -40 0 0 -45z"/>
<path d="M2110 245 l0 -45 45 0 45 0 0 45 0 45 -45 0 -45 0 0 -45z"/>
<path d="M110 150 l0 -40 85 0 85 0 0 40 0 40 -85 0 -85 0 0 -40z"/>
<path d="M1930 150 l0 -40 85 0 85 0 0 40 0 40 -85 0 -85 0 0 -40z"/>
</g>
</svg>
